<svg width="38" height="28" viewBox="0 0 38 28" fill="none" xmlns="http://www.w3.org/2000/svg">
<g clip-path="url(#clip0_2_66)">
<path d="M25.6292 9.39392H15.132C15.0585 9.38671 14.9845 9.40072 14.9173 9.43459C14.85 9.46846 14.7917 9.52106 14.7481 9.5873C14.7044 9.65355 14.6768 9.7312 14.668 9.81276C14.6592 9.89432 14.6694 9.97704 14.6976 10.0529L16.3581 15.4658C16.4065 15.6153 16.4937 15.7452 16.6088 15.8392C16.7238 15.9332 16.8613 15.987 17.0039 15.9936H23.8856C24.0282 15.987 24.1659 15.9332 24.281 15.8392C24.3961 15.7452 24.4835 15.6152 24.5319 15.4657L25.9781 9.92316C26.0007 9.8622 26.0088 9.79578 26.0017 9.73031C25.9945 9.66484 25.9724 9.60252 25.9373 9.54934C25.9023 9.49616 25.8555 9.45391 25.8016 9.42666C25.7476 9.39942 25.6882 9.38809 25.6292 9.39377V9.39392Z" fill="black"/>
<path d="M17.6517 22.2298C17.6517 22.5754 17.5596 22.9132 17.3871 23.2005C17.2146 23.4878 16.9694 23.7118 16.6825 23.844C16.3956 23.9762 16.08 24.0108 15.7754 23.9434C15.4709 23.876 15.1911 23.7096 14.9716 23.4653C14.752 23.2209 14.6025 22.9096 14.5419 22.5707C14.4813 22.2317 14.5124 21.8804 14.6312 21.5612C14.7501 21.2419 14.9513 20.969 15.2095 20.777C15.4677 20.5851 15.7712 20.4826 16.0817 20.4826C16.2879 20.4826 16.492 20.5278 16.6825 20.6156C16.873 20.7034 17.0461 20.8321 17.1919 20.9943C17.3376 21.1566 17.4533 21.3492 17.5322 21.5612C17.6111 21.7731 17.6517 22.0003 17.6517 22.2298Z" fill="black"/>
<path d="M24.2955 22.2511C24.2955 22.5967 24.2034 22.9345 24.0309 23.2218C23.8584 23.5092 23.6132 23.7331 23.3263 23.8654C23.0394 23.9976 22.7238 24.0322 22.4192 23.9648C22.1147 23.8974 21.8349 23.731 21.6154 23.4866C21.3958 23.2423 21.2463 22.9309 21.1857 22.592C21.1251 22.2531 21.1562 21.9018 21.275 21.5825C21.3939 21.2633 21.5951 20.9904 21.8533 20.7984C22.1115 20.6064 22.415 20.5039 22.7255 20.5039C23.1418 20.5042 23.541 20.6883 23.8354 21.0159C24.1298 21.3436 24.2953 21.7878 24.2955 22.2511Z" fill="black"/>
<path d="M24.6117 17.7713H15.4271L11.7512 6H8.88912C8.65331 6 8.42716 6.10425 8.26042 6.28981C8.09368 6.47538 8 6.72706 8 6.98949C8 7.25192 8.09368 7.5036 8.26042 7.68916C8.42716 7.87473 8.65331 7.97898 8.88912 7.97898H10.4869L14.1628 19.7502H24.6117C24.7285 19.7502 24.8441 19.7247 24.952 19.6749C25.0598 19.6252 25.1578 19.5523 25.2404 19.4604C25.323 19.3686 25.3885 19.2595 25.4331 19.1394C25.4778 19.0194 25.5008 18.8907 25.5008 18.7608C25.5008 18.6308 25.4778 18.5021 25.4331 18.3821C25.3885 18.262 25.323 18.153 25.2404 18.0611C25.1578 17.9692 25.0598 17.8963 24.952 17.8466C24.8441 17.7969 24.7285 17.7713 24.6117 17.7713Z" fill="black"/>
</g>
<defs>
<clipPath id="clip0_2_66">
<rect width="18" height="18" fill="white" transform="translate(8 6)"/>
</clipPath>
</defs>
</svg>
