<svg width="24" height="38" viewBox="0 0 24 38" fill="none" xmlns="http://www.w3.org/2000/svg">
<path d="M16.8416 6.25354H15.5112C15.3298 6.25354 15.1786 6.40315 15.1786 6.58268V15.3197V15.3496C15.1786 17.1748 13.697 18.6409 11.8526 18.6409C10.0082 18.6409 8.52661 17.1748 8.52661 15.3496V15.3197V6.58268C8.52661 6.40315 8.37543 6.25354 8.19401 6.25354H6.86362C6.6822 6.25354 6.53102 6.40315 6.53102 6.58268V15.3496C6.53102 18.222 8.85921 20.5559 11.7619 20.6157H11.8828H12.0038C14.8762 20.5559 17.2346 18.222 17.2346 15.3496V6.58268C17.2044 6.40315 17.0532 6.25354 16.8416 6.25354Z" fill="black"/>
<path d="M23.3121 0H0.423307C0.181417 0 0 0.179528 0 0.418898V18.0126V20.0772V37.4614C0 37.7008 0.181417 37.8803 0.423307 37.8803H23.3121C23.554 37.8803 23.7354 37.7008 23.7354 37.4614V20.0772V18.0126V0.418898C23.7354 0.179528 23.554 0 23.3121 0ZM1.93512 2.33386V2.12441C1.93512 2.00472 2.02583 1.88504 2.17701 1.88504H2.38866H21.4072H21.6189C21.7398 1.88504 21.8608 1.9748 21.8608 2.12441V2.33386V19.2693L12.2154 28.8142L12.0643 28.9638C11.9735 29.0535 11.8224 29.0535 11.7317 28.9638L11.5805 28.8142L1.93512 19.2693V2.33386ZM21.8003 35.5465V35.7559C21.8003 35.8756 21.7096 35.9953 21.5584 35.9953H21.3468H2.35843H2.14677C2.02583 35.9953 1.90488 35.9055 1.90488 35.7559V35.5465V21.9622L11.5502 31.5071C11.7014 31.6567 11.9735 31.6567 12.155 31.5071L21.8003 21.9622V35.5465Z" fill="black"/>
</svg>
